<?xml version="1.0" encoding="utf-8"?>
<!-- Svg Vector Icons : http://www.onlinewebfonts.com/icon -->
<!DOCTYPE svg PUBLIC "-//W3C//DTD SVG 1.1//EN" "http://www.w3.org/Graphics/SVG/1.1/DTD/svg11.dtd">
<svg version="1.1" xmlns="http://www.w3.org/2000/svg" xmlns:xlink="http://www.w3.org/1999/xlink" x="0px" y="0px" viewBox="0 0 256 256" enable-background="new 0 0 256 256" xml:space="preserve">
<metadata> Svg Vector Icons : http://www.onlinewebfonts.com/icon </metadata>
<g><g><path fill="#000000" d="M59.2,199.1c-37.7-6.3-49.6-36.9-49.2-51.7c0.3-26.2,15-44.7,38.4-47.9c3.7-0.5,4.6-2.4,5-3.1c1-2,1.6-4.6,2.2-7.2c0.7-3.2,1.6-6.9,3.3-10.5c2.8-6,6.9-11.5,11.9-16c10-9,23.4-13.8,36.4-13c18.9,1,33.3,8.9,40.5,22.2l1.3,2.6c1.2,2.3,2.2,5.7,3.5,6.8c0.5,0.5,2.7,1.6,4.5,1.6h2.8c3.4,0,6.9-0.6,10.6,0.4c6.5,1.8,12.9,4.4,18.3,8.8c1.7,1.4,2.7,1.9,3.2,2.1c1.2,0.5,3.7,0.3,6,0.3c2.8,0,5.8-0.1,9,0.6c6,1.3,11.2,3.2,15.8,5.8c10.4,5.8,19.1,17.6,23.3,28.5l-16.7,0.4c-2.8-7.3-7.6-10.6-14.7-14.6c-3.1-1.8-6.8-3.1-11.3-4.1c-1.3-0.3-3.3-0.3-5.3-0.2c-3.7,0-8.3,0.1-12.8-1.8c-2.7-1.2-4.6-2.8-6.2-4.1c-4.4-3.5-8.6-4.5-13-5.7c-2.3-0.7-4.5,0.2-6.5,0.2h-2.1c-4.1,0-10.4-1-15.7-5.8c-3.6-3.2-5.7-7.9-7.3-11.1l-1.1-2.5c-5.9-10.9-19.4-13.3-26.9-13.8c-8.7-0.5-17.7,2.7-24.5,8.8c-3.3,3-6.1,6.7-8,10.8c-0.9,2-1.5,4.5-2.1,7.2c-0.8,3.3-1.6,7.1-3.4,10.8c-3.3,6.7-9.5,11.1-17.5,12.2c-21.6,3-24.2,23.4-24.3,32c0,3-0.9,28.4,31.3,33.7L59.2,199.1z"/><path fill="#000000" d="M96.7,151.3c-3.1,0-6,0.5-8.6,1.5c-2.6,1-4.9,2.5-6.8,4.5c-1.9,2-3.3,4.4-4.4,7.3c-1.1,2.9-1.6,6.1-1.6,9.8c0,3.7,0.5,6.9,1.4,9.7s2.4,5.1,4.1,7c1.8,1.9,4,3.3,6.6,4.2c2.6,1,5.5,1.4,8.8,1.4c2.4,0,4.8-0.2,7.2-0.6c2.5-0.4,4.7-0.9,6.9-1.6v9.8c-2.2,0.6-4.5,1.1-7,1.5c-2.5,0.3-5.1,0.6-7.8,0.6c-5.3,0-9.9-0.7-13.9-2.3s-7.3-3.7-10-6.4c-2.7-2.7-4.7-6-6.1-9.9c-1.3-3.9-2-8.1-2-12.7c0-4.7,0.7-9.2,2.2-13.2c1.4-4.1,3.5-7.6,6.2-10.6c2.7-3,6.1-5.3,10.2-7s8.7-2.6,13.9-2.6c2.6,0,5.2,0.2,7.5,0.6s4.5,0.9,6.4,1.5v9.7c-2.5-0.8-4.8-1.3-6.9-1.6C100.8,151.6,98.7,151.3,96.7,151.3z"/><path fill="#000000" d="M168.2,161.6c0,4.4-1.2,8-3.6,11.1c-2.4,3-6.1,5.3-11.2,6.7v0.2l18.6,25.6h-13.7l-17-24.1h-7.9v24.1h-11.4v-62.4h19c3.1,0,6.1,0.2,8.8,0.5c2.7,0.4,5,0.9,6.9,1.6c3.7,1.4,6.5,3.5,8.5,6.2C167.3,154,168.2,157.4,168.2,161.6z M139.2,171.5c2.6,0,4.8-0.1,6.6-0.3c1.8-0.2,3.4-0.6,4.6-1c2.3-0.9,3.9-2.1,4.8-3.6c0.9-1.5,1.3-3.3,1.3-5.2c0-1.7-0.3-3.2-1-4.5c-0.7-1.3-1.9-2.3-3.5-3.1c-1.1-0.5-2.5-0.9-4.1-1.1c-1.6-0.2-3.7-0.3-6.1-0.3h-8.2v19.1H139.2z"/><path fill="#000000" d="M214.1,188.5c1.4-4.9,3.1-10.2,5.1-15.8l10.8-29.8h16v62.3h-11.4v-31.6c0-4.6,0.2-10,0.6-16.1h-0.4c-0.5,1.8-1.2,3.8-1.9,6c-0.7,2.2-1.5,4.4-2.2,6.5l-12.9,35.2h-7.4L197.4,170c-0.8-2.1-1.5-4.3-2.2-6.5c-0.7-2.2-1.3-4.2-1.9-6h-0.4c0.4,5.8,0.6,11.1,0.6,16.1v31.6H182v-62.4H198l10.8,29.7c1.8,4.9,3.5,10.2,5.1,15.9H214.1z"/></g></g>
</svg>